<svg width="46" height="46" viewBox="0 0 46 46" fill="none" xmlns="http://www.w3.org/2000/svg">
<path d="M23 43C26.9556 43 30.8224 41.827 34.1114 39.6294C37.4004 37.4318 39.9638 34.3082 41.4776 30.6537C42.9913 26.9991 43.3874 22.9778 42.6157 19.0982C41.844 15.2186 39.9392 11.6549 37.1421 8.85787C34.3451 6.06082 30.7814 4.15601 26.9018 3.3843C23.0222 2.6126 19.0008 3.00867 15.3463 4.52242C11.6918 6.03617 8.56823 8.59962 6.37061 11.8886C4.17298 15.1776 3 19.0444 3 23C3 28.3043 5.10714 33.3914 8.85786 37.1421C12.6086 40.8929 17.6957 43 23 43Z" stroke="#2E297E" stroke-width="5" stroke-linecap="round" stroke-linejoin="round"/>
<path d="M33.2776 16.4453L19.7756 29.9474L11.947 22.1188" stroke="#2E297E" stroke-width="5" stroke-linecap="round" stroke-linejoin="round"/>
</svg>
