    <svg
        xmlns="http://www.w3.org/2000/svg"
        fillRule="evenodd"
        strokeLinejoin="bevel"
        strokeWidth="0.501"
        overflow="visible"
        viewBox="0 0 96 96"
    >
        <g
            fill="none"
            stroke="#000"
            fontFamily="Times New Roman"
            fontSize="16"
            transform="scale(1 -1)"
        >
            <g transform="translate(0 -96)">
                <g strokeMiterlimit="79.84">
                    <path
                        fill="darkblue"
                        stroke="none"
                        strokeWidth="0.5"
                        d="M25.458 24.945c-3.518 3.509-3.525 9.211-.017 12.728l10.126 10.152-10.151 10.126c-3.518 3.509-3.525 9.211-.017 12.728 3.509 3.518 9.211 3.525 12.728.017l10.152-10.127 10.126 10.152c3.509 3.518 9.211 3.525 12.728.017 3.518-3.509 3.525-9.211.017-12.728L61.023 47.857l10.152-10.125c3.518-3.509 3.525-9.211.017-12.728-3.509-3.518-9.211-3.525-12.728-.017L48.311 35.113 38.186 24.962c-3.509-3.518-9.211-3.525-12.728-.017z"
                    ></path>
                    <path
                        stroke="none"
                        strokeLinecap="round"
                        strokeLinejoin="miter"
                        strokeWidth="4.5"
                        d="M8.089 77.737V17.508c0-6.229 5.056-11.285 11.285-11.285h59.329c6.229 0 11.285 5.056 11.285 11.285v60.229c0 6.229-5.056 11.285-11.285 11.285H19.374c-6.229 0-11.285-5.056-11.285-11.285z"
                    ></path>
                    <path
                        fill="red"
                        stroke="none"
                        strokeWidth="0.5"
                        d="M28.636 28.131a4.502 4.502 0 00-.009 6.364l13.304 13.338-13.337 13.304a4.502 4.502 0 00-.009 6.364 4.502 4.502 0 006.364.009l13.338-13.305 13.304 13.338a4.502 4.502 0 006.364.009 4.502 4.502 0 00.009-6.364L54.659 47.849l13.338-13.303a4.502 4.502 0 00.009-6.364 4.502 4.502 0 00-6.364-.009L48.303 41.477 35 28.14a4.502 4.502 0 00-6.364-.009z"
                    ></path>
                </g>
            </g>
        </g>
    </svg>
