<svg width="30" height="34" viewBox="0 0 30 34" fill="none" xmlns="http://www.w3.org/2000/svg">
	<path d="M16.3686 0.497684C16.2342 0.339985 16.0743 0.214816 15.8982 0.129397C15.7221 0.0439779 15.5331 0 15.3423 0C15.1515 0 14.9625 0.0439779 14.7864 0.129397C14.6102 0.214816 14.4504 0.339985 14.316 0.497684L1.30648 15.6403C1.171 15.7967 1.06346 15.9828 0.990075 16.1878C0.916689 16.3929 0.878906 16.6128 0.878906 16.8349C0.878906 17.057 0.916689 17.2769 0.990075 17.4819C1.06346 17.687 1.171 17.8731 1.30648 18.0295C1.44155 18.1854 1.60174 18.3088 1.77785 18.3925C1.95397 18.4762 2.14255 18.5187 2.33279 18.5174H3.77829V30.295C3.77829 31.1874 4.08288 32.0433 4.62504 32.6744C5.16721 33.3055 5.90255 33.66 6.66929 33.66H24.0153C24.782 33.66 25.5174 33.3055 26.0595 32.6744C26.6017 32.0433 26.9063 31.1874 26.9063 30.295V18.5174H28.3518C28.7352 18.5174 29.1028 18.3401 29.3739 18.0246C29.645 17.7091 29.7973 17.2811 29.7973 16.8349C29.7984 16.6134 29.7619 16.3939 29.69 16.1889C29.6181 15.984 29.5121 15.7975 29.3781 15.6403L16.3686 0.497684ZM6.66929 30.295V14.1597L15.3423 4.06461L24.0153 14.1597V30.295H6.66929Z" fill="white"/>
</svg>
