<svg width="144" height="91" viewBox="0 0 144 91" fill="none" xmlns="http://www.w3.org/2000/svg">
<path d="M52.0756 35.761C48.162 41.4151 44.7997 47.4299 42.0346 53.7231C42.0346 53.8397 41.9177 53.9019 41.6761 53.9019C41.3761 54.0807 40.9864 53.9446 40.5072 53.5132C40.0279 53.0817 39.6656 52.7163 39.424 52.4792C39.1089 52.1592 38.8245 51.8104 38.5746 51.4375C38.3018 51.0488 37.1757 50.0109 36.8757 49.6533L36.6497 49.4279C36.6071 49.3873 36.5734 49.3384 36.5506 49.2842C36.5278 49.23 36.5165 49.1718 36.5172 49.113C36.3964 48.7517 36.3802 48.3637 36.4705 47.9935C36.5476 47.641 36.6531 47.2952 36.7861 46.9596C36.8246 46.7663 36.9015 46.5826 37.0121 46.4193C37.0981 46.3066 37.1726 46.1854 37.2342 46.0578C36.5692 46.6564 35.8938 47.2408 35.208 47.8109C34.5145 48.3784 33.8092 48.9342 33.0923 49.4706C32.3753 50.007 31.7402 50.4307 31.0194 50.9088C30.2986 51.387 29.5816 51.8378 28.8608 52.2538C27.7143 52.8815 26.5083 53.3945 25.2605 53.7853C24.0381 54.2006 22.7171 54.2305 21.4771 53.8708C21.2033 53.6742 20.8993 53.5232 20.577 53.4238C19.9272 53.0758 19.3945 52.5444 19.0457 51.8962C18.4936 51.0743 18.2105 50.102 18.2352 49.113C18.2471 47.9898 18.4043 46.8727 18.7028 45.7896C18.9959 44.6709 19.3723 43.5756 19.8289 42.5128C20.2536 41.5255 20.6354 40.6898 20.9783 39.994C20.2234 40.4233 19.5257 40.9457 18.9015 41.5488C16.6182 43.6323 10.6528 52.1838 8.33054 54.345C8.2432 54.4461 8.13653 54.5287 8.01676 54.5881C7.897 54.6475 7.76656 54.6825 7.63308 54.691C7.44631 54.7692 7.2443 54.8046 7.04197 54.7945C6.83964 54.7844 6.64217 54.7291 6.46416 54.6326L5.41992 54.1118C5.04925 53.8931 4.69967 53.6407 4.37568 53.3577C4.06396 53.0895 3.71718 52.8018 3.33144 52.4909C2.86387 52.1022 3.25351 52.1449 2.7197 51.7135C2.18589 51.282 1.67546 50.8972 1.18451 50.5473C1.04916 50.4443 0.939763 50.3112 0.865002 50.1586C0.80732 50.0242 0.739591 49.8943 0.662388 49.7699C0.636642 49.3049 0.643152 48.8386 0.68187 48.3745C0.716878 47.8591 0.797722 47.3479 0.923448 46.8469C0.999133 46.6547 1.06035 46.4572 1.10658 46.256C1.16892 46.0189 1.23127 45.7857 1.28971 45.5486C1.67276 44.8891 2.01372 44.2063 2.31057 43.504C2.7158 42.6203 3.1574 41.7134 3.63536 40.783C4.11072 39.8579 4.57829 39.271 4.97183 38.237C6.35116 35.8089 7.81102 33.4067 9.35141 31.0304C10.8903 28.6404 12.5551 26.3334 14.3388 24.1192C14.669 23.5839 15.0613 23.0895 15.5077 22.646C16.8066 21.1612 18.0625 19.6996 19.2756 18.2614C20.4887 16.8232 21.7057 15.3643 22.9265 13.8846C23.0337 13.5183 23.2306 13.1844 23.4993 12.9128C23.7526 12.664 23.9513 12.458 24.0955 12.2909C24.2154 12.1589 24.3224 12.0157 24.415 11.8633C24.4935 11.7308 24.6066 11.6219 24.7423 11.5485C24.9356 11.3486 25.1963 11.2272 25.4741 11.2078C25.7518 11.1884 26.0269 11.2724 26.2463 11.4435C26.5697 11.6534 27.0256 11.9333 27.6451 12.2753C28.8483 13.0795 29.9916 13.9693 31.0662 14.938C31.4942 15.3864 31.8292 15.9148 32.0519 16.4928C32.1459 16.7729 32.1592 17.0736 32.0903 17.3609C32.0214 17.6481 31.8731 17.9103 31.6623 18.1176C30.1569 19.4642 28.7261 20.8916 27.3762 22.3934C25.9086 23.8627 24.4799 25.3877 23.0902 26.9684C21.7005 28.5492 20.2977 30.196 18.882 31.9089C18.7262 32.1382 18.5703 32.3714 18.4184 32.6047L17.9508 33.2966C17.3313 34.074 16.7156 34.8825 16.0961 35.7299C15.4766 36.5772 14.8064 37.4285 14.1206 38.2798C13.731 38.8978 11.3152 42.3884 11.0425 42.8121C10.7923 43.1965 10.5797 43.6039 10.4073 44.0287C10.2799 44.1838 10.181 44.3602 10.1151 44.5496C9.99821 44.8178 9.97873 44.9383 10.0567 44.9383H10.1735C10.2476 44.9383 19.3886 37.584 22.8447 35.8348C24.0448 34.9175 23.4097 35.0224 24.3253 34.2217C24.9098 33.3199 25.5215 32.4129 26.1606 31.5007C27.1788 30.0055 28.2179 28.5388 29.2777 27.1006C30.3375 25.6624 31.4324 24.254 32.5624 22.8754C35.8471 18.6968 40.1838 13.4959 41.267 12.2404C41.2989 12.0626 41.3945 11.9023 41.5358 11.7895C41.725 11.6732 41.9429 11.6117 42.1651 11.6117C42.3873 11.6117 42.6052 11.6732 42.7944 11.7895C43.036 11.9721 43.3788 12.2248 43.8308 12.5669C44.2778 12.894 44.6998 13.2539 45.0933 13.6436C45.4479 13.984 45.7233 14.398 45.8998 14.8563C45.9743 15.062 46.0011 15.2818 45.9782 15.4993C45.9552 15.7168 45.8832 15.9262 45.7673 16.1119C45.5258 16.3529 44.7348 17.7211 42.9931 19.9367C40.5929 22.8028 38.2823 25.7323 36.0614 28.7254L35.8081 29.0908C35.7902 29.1475 35.7596 29.1993 35.7185 29.2424C35.6732 29.3985 35.5772 29.5352 35.4457 29.6311L33.1819 32.8768C32.2195 34.2567 31.3194 35.6599 30.4817 37.0981C30.0609 37.8172 29.5504 38.7035 28.9504 39.7452C28.3375 40.8036 27.7783 41.892 27.2749 43.0064C26.7724 44.1123 26.3504 45.2529 26.0125 46.4193C25.6813 47.5543 25.7748 47.36 25.9541 48.1996C25.9994 48.2521 26.0548 48.295 26.117 48.3257C26.1793 48.3564 26.2471 48.3743 26.3164 48.3784C26.5554 48.6168 27.0749 48.4367 27.875 47.8381C28.6854 47.2395 29.6712 46.6409 30.6025 45.8945C35.6172 41.8714 40.6007 36.2857 43.7802 32.904C46.9597 29.5222 50.0807 26.0044 53.1316 22.3506C53.6121 21.752 54.0628 21.1676 54.4836 20.5975C54.9006 20.03 58.6957 15.3072 59.4165 14.4404C60.1373 13.5736 60.8855 12.7224 61.6647 11.8827C61.7312 11.8122 61.7924 11.7368 61.8479 11.6573C61.9162 11.56 62.0089 11.4823 62.1167 11.4318C62.2939 11.2862 62.5164 11.2066 62.746 11.2066C62.9756 11.2066 63.1981 11.2862 63.3753 11.4318C63.6168 11.6107 63.9597 11.8672 64.4117 12.2093C65.13 12.7517 65.8169 13.3344 66.469 13.9546C66.8099 14.2994 67.0752 14.711 67.2483 15.1634C67.3241 15.3591 67.3435 15.572 67.3043 15.7781C67.265 15.9842 67.1687 16.1752 67.0262 16.3295C63.6246 20.2671 56.0032 30.082 52.0756 35.761ZM38.6213 9.32895C39.2395 8.78735 39.8006 8.26908 40.3046 7.77412L41.7579 6.32814C41.942 6.12921 42.0708 5.88579 42.1317 5.62195C42.1925 5.35811 42.1832 5.083 42.1047 4.82384C41.9302 4.25015 41.6109 3.73082 41.1774 3.31566C40.7098 2.8531 39.3928 1.71808 38.8395 1.29439C38.3996 0.932491 37.9391 0.596344 37.4602 0.287643C37.0705 -0.0958809 36.5666 -0.0958809 35.9484 0.287643L35.6016 0.637478L35.2548 0.983427C34.8774 1.4352 34.4699 1.86115 34.0352 2.25838C33.58 2.67742 33.1712 3.14395 32.8156 3.64995V3.76268C33.1814 4.88889 33.7967 5.9185 34.6158 6.77515C35.4262 7.62641 37.3043 8.94024 38.6213 9.32895ZM132.903 14.938C132.437 14.4343 131.914 13.9869 131.344 13.6047C130.764 13.216 130.32 12.9128 130.012 12.6796C129.804 12.4933 129.535 12.3902 129.256 12.3902C128.977 12.3902 128.708 12.4933 128.5 12.6796C128.362 12.7443 128.242 12.8433 128.153 12.9672C128.049 13.1065 127.933 13.2365 127.806 13.3559C127.647 13.5114 127.417 13.7019 127.167 13.9351C126.88 14.1854 126.661 14.5035 126.528 14.8602C125.211 16.2518 123.894 17.6226 122.577 18.9727C121.26 20.3229 119.903 21.7002 118.506 23.1047C118.027 23.5141 117.598 23.9786 117.228 24.4885C115.295 26.5714 113.474 28.7551 111.773 31.0304C110.791 32.3494 109.834 33.6723 108.901 34.9991L107.783 35.9553C106.388 37.0359 105.053 38.1165 103.777 39.1971C102.502 40.2777 101.165 41.3143 99.7678 42.3068C99.4848 42.4859 99.2176 42.6887 98.9691 42.9132C98.5794 43.2202 98.1898 43.5506 97.7495 43.8966C97.3092 44.2425 96.9351 44.5729 96.5806 44.88C96.226 45.1871 96.0195 45.3465 95.9415 45.3465H95.8247C95.7467 45.3465 95.7662 45.2169 95.8831 44.9578C95.9672 44.7938 96.0263 44.6182 96.0584 44.4369C96.2778 43.5334 96.7167 42.6978 97.3365 42.0036C97.7235 41.3894 98.13 40.7727 98.556 40.1533C98.9821 39.534 99.4262 38.916 99.8886 38.2992C101.034 36.5708 102.275 34.9071 103.606 33.316C103.767 33.0762 103.942 32.8452 104.128 32.6241C104.319 32.3909 104.494 32.1577 104.65 31.9283C107.28 28.4533 114.676 21.0795 115.451 20.4576C115.633 20.234 115.759 19.9705 115.82 19.6887C115.88 19.407 115.872 19.115 115.798 18.8367C115.614 18.2536 115.296 17.7213 114.87 17.2819C114.404 16.7791 113.881 16.3318 113.312 15.9486C112.731 15.5599 112.287 15.2567 111.979 15.0235C111.65 14.7593 111.23 14.635 110.81 14.6775C110.444 14.693 110.085 14.7914 109.762 14.9652C107.742 15.8861 105.8 16.9704 103.956 18.207C101.634 19.8707 99.3509 21.5123 97.1066 23.1319C96.1792 23.829 95.2506 24.504 94.3206 25.1571C93.3907 25.8101 92.462 26.5253 91.5347 27.3027C92.54 26.1444 93.5465 25.043 94.5544 23.9987C95.5623 22.9544 96.5286 21.8932 97.4534 20.8152L98.8483 19.4236C99.3146 18.9589 99.819 18.5337 100.356 18.1526C100.54 17.9289 100.667 17.6649 100.728 17.3824C100.789 17.0999 100.782 16.807 100.707 16.5278C100.522 15.9443 100.203 15.4119 99.7756 14.973C99.3038 14.4552 98.7714 13.9958 98.1898 13.6047C97.6079 13.2212 97.1248 12.9128 96.7403 12.6796C96.6168 12.5619 96.4705 12.4705 96.3104 12.411C96.1503 12.3516 95.9797 12.3252 95.8091 12.3336C95.4023 12.3372 95.0019 12.4357 94.6401 12.6213C94.2944 12.7772 94.0096 13.0422 93.8297 13.3754C91.5828 14.9302 89.2982 16.5317 86.9759 18.1798C84.6536 19.8279 82.3365 21.4695 80.0247 23.1047C78.4012 24.1853 76.7958 25.3436 75.2087 26.5797C73.6216 27.8158 72.0604 29.0895 70.5252 30.4007C74.0086 25.9228 77.8011 21.5175 81.9027 17.1847L82.195 16.8971C82.3108 16.7833 82.4081 16.6521 82.4833 16.5084C82.5667 16.3623 82.6004 16.1932 82.5793 16.0264C82.5583 15.8596 82.4836 15.7041 82.3664 15.5832C82.155 15.3678 81.9227 15.1737 81.6729 15.0041C81.2832 14.697 80.8936 14.4054 80.4533 14.1334C80.013 13.8613 79.6194 13.6125 79.2337 13.3832C78.922 13.1499 78.6531 12.94 78.4193 12.7457C78.1928 12.5549 77.9053 12.4515 77.6089 12.4541C77.2667 12.4274 76.923 12.4825 76.6065 12.6151C76.29 12.7476 76.0098 12.9536 75.7893 13.216C75.3174 13.6744 74.8712 14.1585 74.4528 14.6659C73.9878 15.2075 73.5229 15.7089 73.0579 16.1702C72.5929 16.6362 72.1668 17.1393 71.7837 17.6745C69.6927 20.1466 67.6016 22.5799 65.5105 24.9744C63.4194 27.3688 61.4076 29.8345 59.475 32.3714C57.8514 34.6881 56.2448 37.0204 54.6551 39.3682C53.0692 41.7237 48.5728 48.5572 47.2519 51.0293C47.096 51.4919 46.9207 51.9739 46.7298 52.4792C46.5376 52.8979 46.5166 53.3748 46.6713 53.8086C46.7453 53.9641 46.8233 54.1196 46.9012 54.2711L47.135 54.7376C47.4428 55.1263 47.774 55.5461 48.1208 56.0087C48.4576 56.4592 48.8261 56.8853 49.2235 57.2836C49.4573 57.5946 50.3067 58.2437 50.9262 58.8384C51.5457 59.4332 52.8744 60.3738 53.2641 60.2184C53.2923 60.1842 53.3273 60.1563 53.3669 60.1362C53.4064 60.1161 53.4497 60.1044 53.4939 60.1017C53.5719 60.1017 53.6108 60.024 53.6108 59.8724L53.7277 59.6392C54.0734 59.4602 54.3868 59.2251 54.6551 58.9434L55.5863 58.0183C56.4357 57.167 56.6384 56.2186 57.2618 55.2973C59.3931 52.3315 59.9152 50.2442 65.3975 43.504C67.5366 40.8725 69.2939 38.4897 71.511 35.9398C73.6073 33.5259 76.0776 30.77 78.3219 28.6476C80.5663 26.5253 85.2693 22.7898 86.9525 22.234C86.6447 22.6227 84.1471 25.5885 83.3366 26.5914C82.5262 27.5943 81.6884 28.6399 80.839 29.7205C79.9896 30.8011 79.1753 31.8234 78.3999 32.7874C77.8606 33.4359 77.3572 34.1132 76.892 34.8164C76.0399 36.1302 75.1879 37.4039 74.3359 38.6374C73.4839 39.8709 72.6332 41.0681 71.7837 42.229C71.4088 42.6732 71.0589 43.1377 70.7356 43.6206C70.4278 44.0832 70.1161 44.5846 69.8083 45.1249C69.7102 45.4028 69.5944 45.6742 69.4615 45.9373C69.3432 46.1911 69.1854 46.4246 68.9939 46.6292C68.8381 47.1734 68.7056 47.6554 68.6043 48.0791C68.4868 48.5138 68.4668 48.969 68.5458 49.4123C68.4691 49.5545 68.4289 49.7134 68.4289 49.8749C68.4289 50.0363 68.4691 50.1953 68.5458 50.3374C68.8536 50.7262 69.1654 51.1498 69.4771 51.6124C69.7888 52.075 70.0927 52.4986 70.4044 52.8874C70.6353 53.1939 70.8879 53.4836 71.1603 53.7542L71.9123 54.5083C71.9903 54.586 72.1201 54.5666 72.302 54.45C72.5034 54.3325 72.6973 54.2027 72.8825 54.0613C73.0643 53.9145 73.2385 53.7589 73.4047 53.5948L73.7514 53.2489C74.3078 52.7687 74.8287 52.2491 75.31 51.694C75.8139 51.1136 76.2581 50.5538 76.6426 50.0148C78.3466 48.0817 80.2624 45.958 82.3898 43.6439C84.5172 41.3298 86.7044 39.0131 88.9514 36.6939C91.1957 34.3772 93.44 32.1745 95.6844 30.0859C97.9326 28.0024 98.8015 27.6642 100.804 26.0433L100.711 26.1521C100.691 26.1794 100.602 26.2882 100.321 26.6108C99.5418 27.5359 98.7301 28.5012 97.8859 29.5067C97.0416 30.5121 96.2481 31.4969 95.5051 32.4608C94.77 33.4248 94.2505 34.1388 93.9466 34.6026C93.014 35.8387 92.1425 37.0748 91.3321 38.3109C90.5177 39.547 88.928 42.1124 88.4643 43.1114C88.3085 43.4224 88.1331 43.7489 87.9422 44.0987C87.7513 44.4485 87.5759 44.7362 87.4201 44.9655C87.0363 45.84 86.9158 46.807 87.0733 47.7487C87.0827 48.0869 87.2047 48.4124 87.4201 48.6738C87.8825 49.0625 88.3669 49.4875 88.8734 49.9487C89.3666 50.4048 89.8871 50.8305 90.432 51.2237C90.8216 51.5308 91.1879 51.8223 91.5347 52.0905C91.886 52.3648 92.2542 52.6167 92.6374 52.8446C93.0164 52.993 93.3848 53.1671 93.7401 53.3655C93.907 53.459 94.0934 53.5129 94.2846 53.523C94.4758 53.5331 94.6668 53.4992 94.8428 53.4238C94.9766 53.415 95.1073 53.3795 95.2271 53.3195C95.3469 53.2594 95.4534 53.1759 95.5402 53.0739C97.7846 50.9127 98.5599 50.4735 100.847 48.3861C101.237 48.0208 101.646 47.6437 102.047 47.2744C101.981 47.5582 101.919 47.8497 101.876 48.1568C101.804 48.6161 101.765 49.0798 101.759 49.5445C101.827 49.6763 101.885 49.8127 101.934 49.9526C102.002 50.1019 102.102 50.2346 102.226 50.3413C102.691 50.73 103.175 51.155 103.676 51.6163C104.177 52.0776 104.66 52.5025 105.125 52.8912C105.515 53.1983 105.862 53.4899 106.174 53.7581C106.498 54.041 106.847 54.2935 107.218 54.5122L108.262 55.033C108.441 55.1276 108.638 55.1819 108.84 55.192C109.042 55.2021 109.244 55.1677 109.431 55.0913C109.565 55.0826 109.695 55.0471 109.815 54.987C109.935 54.9269 110.042 54.8434 110.128 54.7415C112.466 52.5803 114.551 50.1897 116.721 47.9897C120.282 44.3786 125.952 39.3099 125.952 39.3099C126.062 39.2762 126.161 39.216 126.242 39.1347C126.323 39.0533 126.383 38.9532 126.415 38.8434C126.571 38.6918 126.571 38.4547 126.415 38.1515C126.284 37.8639 126.134 37.5847 125.967 37.3158C125.812 37.1642 125.656 37.0087 125.504 36.8532C125.368 36.7145 125.212 36.5978 125.04 36.5073C125.01 36.4538 124.969 36.4069 124.92 36.3692C124.872 36.3314 124.816 36.3037 124.757 36.2874C124.698 36.2711 124.636 36.2668 124.574 36.2745C124.513 36.2822 124.454 36.3019 124.401 36.3324C124.166 36.4212 123.949 36.553 123.762 36.7211C122.983 37.3391 117.263 41.3078 115.95 42.3107C115.872 42.3884 115.638 42.5828 115.252 42.8898C114.866 43.1969 114.442 43.5273 113.974 43.8733C113.507 44.2192 113.086 44.5496 112.7 44.8567C112.497 45.0515 112.261 45.2094 112.003 45.3231H111.886C111.808 45.3231 111.827 45.1936 111.944 44.9344C112.013 44.7471 112.11 44.5714 112.232 44.4136C112.408 43.9894 112.622 43.5822 112.871 43.1969C113.123 42.8125 113.337 42.4051 113.511 41.9803C113.975 41.3661 114.401 40.7494 114.789 40.13C115.176 39.5107 115.565 38.8926 115.957 38.2759C116.655 37.4246 117.31 36.5773 117.933 35.726C118.556 34.8747 119.168 34.0662 119.788 33.2927L120.255 32.6008C120.407 32.3676 120.563 32.1343 120.719 31.905C122.109 30.2051 123.502 28.5634 124.9 26.9801C126.297 25.3968 127.726 23.8717 129.186 22.405C130.536 20.9032 131.966 19.4759 133.472 18.1293C133.682 17.9214 133.83 17.6592 133.899 17.3722C133.967 17.0851 133.955 16.7846 133.861 16.5045C133.648 15.9245 133.323 15.3922 132.903 14.938ZM143.934 4.80441C143.758 4.22946 143.436 3.70981 142.999 3.29623C142.522 2.82309 142.019 2.37792 141.491 1.96297C141.046 1.60737 140.58 1.27896 140.096 0.97954C139.709 0.596016 139.206 0.596016 138.588 0.97954L138.241 1.32938L137.89 1.67532C137.514 2.12803 137.107 2.55404 136.671 2.95028C136.218 3.36994 135.809 3.83494 135.451 4.33796V4.45457C135.82 5.57942 136.435 6.6084 137.251 7.46704C138.132 8.35777 139.235 8.99785 140.446 9.32117C141.066 8.78087 141.615 8.26 142.13 7.76635L143.579 6.32036C143.767 6.12105 143.898 5.87598 143.96 5.60984C144.023 5.3437 144.013 5.06589 143.934 4.80441Z" fill="url(#paint0_linear_0_1)"/>
<path d="M10.8671 70.7445C8.71628 70.7445 7.02783 71.5051 5.80176 73.0262C4.57569 74.5474 3.95745 76.6373 3.94706 79.2961C3.94706 82.0973 4.53932 84.2171 5.72383 85.6553C6.90834 87.0935 8.62277 87.8113 10.8671 87.8087C11.8137 87.8124 12.758 87.716 13.6842 87.5211C14.5921 87.3267 15.5389 87.0819 16.5169 86.7787V89.9816C14.56 90.6858 12.4912 91.0295 10.4112 90.9961C7.0603 90.9961 4.48737 89.9829 2.69242 87.9564C0.897465 85.93 -1.01039e-05 83.0341 -1.01039e-05 79.2689C-0.0465257 77.1231 0.401378 74.9954 1.30919 73.0496C2.12102 71.3325 3.43985 69.9043 5.08871 68.9565C6.8665 67.9698 8.87614 67.4747 10.91 67.5222C13.1551 67.5019 15.374 68.005 17.3897 68.9915L16.0454 72.1011C15.247 71.7244 14.4244 71.401 13.5829 71.1332C12.7034 70.8634 11.7871 70.7323 10.8671 70.7445Z" fill="#322A85"/>
<path d="M51.686 90.6891L49.3988 84.3493H40.6474L38.407 90.6929H34.4599L43.0321 67.7593H47.0999L55.672 90.6929L51.686 90.6891ZM48.413 81.1269L46.2661 74.9076C46.1102 74.493 45.8933 73.8373 45.6154 72.9407C45.3387 72.0428 45.1517 71.3859 45.0465 70.97C44.7239 72.3956 44.31 73.7991 43.8074 75.1719L41.7423 81.123L48.413 81.1269Z" fill="#322A85"/>
<path d="M87.9149 84.4853C87.9149 86.5195 87.1785 88.1132 85.7057 89.2664C84.2328 90.4195 82.2028 90.9974 79.6156 91C77.0179 91 74.8996 90.5996 73.2605 89.7989V86.2655C74.3272 86.7657 75.4421 87.1564 76.588 87.4317C77.6641 87.6983 78.7679 87.8379 79.8766 87.8476C81.3573 87.8476 82.4522 87.5677 83.1535 87.0041C83.4967 86.7373 83.7717 86.3932 83.9559 86C84.1401 85.6068 84.2283 85.1756 84.2133 84.7418C84.2186 84.3312 84.1346 83.9243 83.9671 83.5492C83.7996 83.1741 83.5526 82.8397 83.2431 82.5689C82.5924 81.9742 81.2598 81.2746 79.2337 80.4622C77.1556 79.6174 75.6841 78.6534 74.8191 77.5702C73.9544 76.461 73.5002 75.0879 73.5332 73.6831C73.4952 72.826 73.6598 71.9719 74.0138 71.19C74.3678 70.408 74.9013 69.7201 75.5711 69.1819C76.927 68.0883 78.7454 67.5416 81.0261 67.5416C83.285 67.5574 85.5154 68.0474 87.572 68.9798L86.3797 72.0272C84.6643 71.244 82.8102 70.808 80.9248 70.7445C79.7117 70.7445 78.7934 71.0036 78.17 71.5219C77.8634 71.7746 77.6192 72.0943 77.4564 72.4563C77.2935 72.8183 77.2164 73.2128 77.231 73.6093C77.2204 74.1417 77.3551 74.6671 77.6206 75.1291C77.9361 75.6164 78.3584 76.0257 78.8558 76.3263C79.8535 76.9032 80.8959 77.3998 81.9729 77.8112C83.2808 78.3024 84.5218 78.9553 85.6667 79.7547C86.3947 80.2909 86.9849 80.9916 87.3889 81.7993C87.7644 82.6438 87.9442 83.5619 87.9149 84.4853Z" fill="#322A85"/>
<path d="M126.431 90.689H122.675V80.3961H112.119V90.689H108.379V67.8525H112.119V77.1815H122.675V67.8525H126.431V90.689Z" fill="#322A85"/>
<defs>
<linearGradient id="paint0_linear_0_1" x1="117.052" y1="-9.81483" x2="26.2624" y2="67.5666" gradientUnits="userSpaceOnUse">
<stop stop-color="#F5A800"/>
<stop offset="0.7" stop-color="#8D4A97"/>
<stop offset="0.98" stop-color="#322A85"/>
</linearGradient>
</defs>
</svg>
