<svg width="55" height="55" viewBox="0 0 55 55" fill="none" xmlns="http://www.w3.org/2000/svg">
<path d="M27.5 52C41.031 52 52 41.031 52 27.5C52 13.969 41.031 3 27.5 3C13.969 3 3 13.969 3 27.5C3 41.031 13.969 52 27.5 52Z" stroke="#2E2A85" stroke-width="4.5" stroke-linecap="round" stroke-linejoin="round"/>
<path d="M27.5 41.1111V41.1385" stroke="#2E2A85" stroke-width="4.5" stroke-linecap="round" stroke-linejoin="round"/>
<path d="M27.5 31.583C27.4499 30.6993 27.6882 29.8232 28.1792 29.0868C28.6702 28.3503 29.3872 27.7933 30.2222 27.4997C31.2454 27.1084 32.1638 26.4849 32.9051 25.6784C33.6465 24.8719 34.1904 23.9042 34.4943 22.8517C34.7981 21.7992 34.8534 20.6906 34.656 19.613C34.4585 18.5355 34.0136 17.5185 33.3563 16.6421C32.6991 15.7658 31.8473 15.0539 30.8682 14.5627C29.889 14.0714 28.8092 13.8141 27.7138 13.8111C26.6183 13.808 25.5371 14.0593 24.5552 14.5451C23.5734 15.031 22.7177 15.7381 22.0555 16.6108" stroke="#2E2A85" stroke-width="4.5" stroke-linecap="round" stroke-linejoin="round"/>
</svg>
